<svg width="57" height="93" viewBox="0 0 57 93" fill="none" xmlns="http://www.w3.org/2000/svg">
<path opacity="0.04" d="M83.0164 17.4672C77.7242 10.9173 70.7365 5.94481 62.814 3.09122C62.6642 3.02627 62.5091 2.97407 62.3505 2.93514C54.9047 0.319851 46.9134 -0.346302 39.1373 1.00011C31.3613 2.34653 24.0592 5.6607 17.9261 10.6272C11.793 15.5936 7.03309 22.0471 4.09936 29.3733C1.16563 36.6995 0.15575 44.6547 1.16582 52.4815C1.17155 52.6535 1.19257 52.8247 1.22866 52.9929C2.369 61.227 5.71146 69.0004 10.9031 75.4924C16.0948 81.9845 22.9431 86.9543 30.725 89.8771C30.7817 89.9598 30.822 90.043 30.885 90.1207C31.2595 90.5819 31.7691 90.9141 32.3421 91.0709C32.9152 91.2277 33.5229 91.2011 34.08 90.9948C41.2557 93.0994 48.8349 93.4316 56.1672 91.9629C63.4995 90.4943 70.366 87.2685 76.1775 82.5624C81.989 77.8564 86.5719 71.8106 89.5329 64.9439C92.494 58.0772 93.7448 50.5946 93.1781 43.1381C93.4949 42.6358 93.6467 42.0471 93.6124 41.4542C93.5781 40.8614 93.3593 40.2941 92.9867 39.8317C92.9237 39.754 92.8497 39.6943 92.7851 39.6257C91.5664 31.4996 88.1932 23.8483 83.0164 17.4672ZM17.4099 74.2718L27.4515 66.1404C31.4138 70.7435 35.9345 74.8347 40.909 78.3194L33.0793 84.6598C27.1103 82.4809 21.7411 78.9214 17.4099 74.2718ZM7.10477 53.5643L15.1785 47.0263C17.495 52.2355 20.4067 57.1589 23.8557 61.6984L13.8134 69.8304C10.4059 64.9691 8.11487 59.4149 7.10398 53.565L7.10477 53.5643ZM76.6907 18.9134L66.65 27.0442C62.9264 22.7272 58.716 18.8555 54.1027 15.5062L62.1757 8.96881C67.6876 11.173 72.6438 14.5689 76.6893 18.9132L76.6907 18.9134ZM62.1993 30.6483L47.4731 42.5733L36.8609 29.4683L49.4149 19.3023C54.1466 22.5181 58.4432 26.3316 62.1979 30.6482L62.1993 30.6483ZM33.2632 25.0239L23.9776 13.5571C29.2046 11.1516 36.5343 12.2818 44.1636 16.1957L33.2632 25.0239ZM19.5361 17.1551L28.8211 28.6211L17.9169 37.4511C15.6765 29.1721 16.0956 21.7684 19.5347 17.155L19.5361 17.1551ZM32.4195 33.0649L43.0317 46.1699L28.3056 58.0949C24.865 53.5231 22.0295 48.5261 19.8694 43.2278L32.4195 33.0649ZM31.9029 62.5356L46.6275 50.6119L57.9138 64.5492L45.6255 74.5C40.5196 71.1663 35.9011 67.1399 31.9022 62.5362L31.9029 62.5356ZM61.5117 68.9908L70.1221 79.6237C65.1379 81.9175 58.2377 80.9967 50.9939 77.508L61.5117 68.9908ZM74.5655 76.028L65.9539 65.3936L76.471 56.877C78.3737 64.6897 77.8435 71.6287 74.5647 76.0287L74.5655 76.028ZM62.3567 60.9514L51.0705 47.0141L65.7958 35.0897C69.4675 39.9584 72.4456 45.3131 74.6449 51.0006L62.3567 60.9514ZM70.2465 31.4856L80.2873 23.3548C83.9355 28.5573 86.3013 34.5492 87.1912 40.8408L79.3614 47.1812C76.9863 41.5914 73.9242 36.3191 70.2458 31.4862L70.2465 31.4856ZM55.571 6.9543L49.043 12.2406C45.2669 10.0153 41.1836 8.35832 36.9246 7.32302C43.0291 5.7631 49.4119 5.6382 55.5727 6.95806L55.571 6.9543ZM10.7434 28.5242C10.8706 32.9054 11.6424 37.2439 13.0339 41.4002L6.50591 46.6864C6.49833 40.3875 7.94928 34.1724 10.7451 28.5279L10.7434 28.5242ZM39.8983 86.4878L46.0565 81.5011C49.5454 83.4533 53.2857 84.9177 57.1727 85.8533C51.5272 87.2996 45.6369 87.5173 39.9001 86.4915L39.8983 86.4878ZM83.3532 64.6527C83.2461 60.6562 82.5914 56.6932 81.4073 52.8745L87.5654 47.8878C87.3777 53.7142 85.9419 59.4325 83.3549 64.6565L83.3532 64.6527Z" fill="#242993"/>
</svg>
